<?xml version="1.0" standalone="no"?>
<!DOCTYPE svg PUBLIC "-//W3C//DTD SVG 20010904//EN"
 "http://www.w3.org/TR/2001/REC-SVG-20010904/DTD/svg10.dtd">
<svg version="1.0" xmlns="http://www.w3.org/2000/svg"
 width="589.000000pt" height="549.000000pt" viewBox="0 0 589.000000 549.000000"
 preserveAspectRatio="xMidYMid meet">

<defs>
<mask id="wingTears" maskUnits="userSpaceOnUse" x="0" y="0" width="589" height="549">
<rect x="0" y="0" width="589" height="549" fill="#ffffff"/>
<g fill="#000000">
<polygon points="150,118 158,140 152,160 160,180 154,200 149,214 141,196 148,176 140,156 147,137"/>
<polygon points="215,140 222,158 217,176 224,193 219,210 211,193 216,175 209,157"/>
<polygon points="118,180 124,195 119,210 125,222 118,209 123,194"/>
<polygon points="445,118 437,140 443,160 435,180 441,200 446,214 454,196 447,176 455,156 448,137"/>
<polygon points="505,150 512,168 507,186 514,203 506,186 511,167"/>
<polygon points="470,178 476,193 471,208 477,222 470,208 475,193"/>
</g>
</mask>
</defs>
<g mask="url(#wingTears)">
<g transform="translate(0.000000,549.000000) scale(0.100000,-0.100000)"
fill="#000000" stroke="none">
<path d="M2891 5396 c-7 -8 -14 -40 -16 -71 -7 -91 -58 -202 -118 -257 l-51
-48 32 -6 c24 -5 32 -12 32 -28 0 -38 -19 -91 -50 -139 -16 -26 -30 -50 -30
-53 0 -12 64 33 92 65 35 40 48 33 55 -31 3 -28 -1 -58 -11 -82 -21 -50 -20
-59 4 -46 32 17 28 -22 -16 -179 -6 -18 -4 -22 6 -16 17 10 8 -57 -21 -165
-28 -105 -26 -103 -85 -89 -48 11 -53 10 -120 -24 -109 -55 -173 -70 -273 -65
-99 5 -174 33 -281 103 -87 57 -124 99 -145 165 -12 36 -34 72 -65 105 -25 27
-56 66 -68 86 -20 34 -68 66 -80 54 -3 -3 5 -16 17 -29 13 -14 25 -43 28 -67
5 -38 4 -42 -13 -37 -75 22 -216 56 -444 108 -551 126 -869 240 -954 345 -21
25 -40 44 -43 42 -10 -11 31 -85 67 -122 46 -47 70 -128 101 -340 42 -289 45
-605 9 -995 -9 -104 -4 -178 16 -227 21 -48 29 -46 29 7 0 70 41 125 127 169
157 80 322 22 405 -143 38 -76 51 -119 64 -214 12 -95 39 -178 69 -214 l19
-23 -6 51 c-8 71 17 141 73 203 108 120 261 134 347 32 14 -17 39 -68 56 -113
45 -119 71 -167 106 -194 18 -13 35 -24 38 -24 3 0 -5 23 -20 51 -22 44 -25
61 -21 114 6 66 39 144 84 199 71 85 226 181 340 211 163 42 410 -19 428 -106
12 -63 7 -84 -28 -116 -55 -48 -56 -92 -6 -243 45 -133 47 -170 16 -262 -12
-34 -12 -43 5 -78 12 -24 32 -46 52 -56 17 -9 40 -23 49 -31 15 -14 18 -11 28
29 27 110 33 128 43 128 18 0 1 -173 -22 -219 -31 -60 -28 -77 8 -50 44 33 54
19 49 -70 -3 -54 -11 -89 -29 -121 -13 -25 -29 -58 -37 -75 l-13 -30 26 27
c30 32 40 35 49 12 10 -27 7 -44 -23 -112 -16 -37 -32 -78 -36 -92 l-6 -25 19
24 c12 15 24 21 32 16 19 -12 5 -73 -35 -156 -35 -74 -38 -92 -10 -69 34 28
31 1 -22 -275 -10 -52 -16 -141 -17 -255 -1 -167 1 -179 27 -255 51 -144 151
-267 274 -337 74 -42 77 -52 14 -46 -28 3 -51 3 -51 1 0 -7 117 -54 194 -78
70 -21 250 -55 295 -55 8 0 -16 19 -55 42 -82 49 -199 136 -234 173 l-25 27
-5 -23 c-3 -12 -10 -24 -16 -26 -15 -5 -123 95 -170 160 -123 167 -130 342
-28 682 30 99 54 186 54 194 0 31 24 91 36 91 7 0 18 -9 24 -21 19 -34 20 -17
5 56 -17 79 -20 175 -6 175 6 0 17 -10 25 -22 l16 -22 0 29 c0 17 -9 58 -20
93 -29 92 -7 149 34 90 21 -29 20 -16 -4 84 -28 115 -26 208 3 208 6 0 21 -10
34 -22 28 -26 28 -21 3 60 -22 72 -25 138 -9 197 l12 40 18 -43 c11 -26 16
-54 13 -68 -3 -13 -3 -39 0 -57 l6 -34 71 68 c52 49 69 73 65 86 -43 141 -45
205 -10 288 61 143 65 199 17 251 -33 35 -41 95 -19 129 38 58 229 123 325
109 151 -20 265 -73 371 -171 117 -108 155 -222 126 -373 l-8 -45 27 25 c36
33 71 95 85 150 19 74 69 156 110 185 46 32 111 48 154 39 121 -25 257 -197
243 -307 -3 -20 -2 -35 3 -32 24 15 55 112 71 227 22 152 47 221 100 281 84
96 229 129 344 78 84 -37 116 -77 136 -171 10 -47 12 -50 24 -32 35 49 39 106
20 317 -29 338 -13 742 41 1020 29 151 53 217 89 248 32 26 61 85 53 108 -2 6
-21 -10 -43 -36 -90 -111 -482 -251 -1010 -361 -66 -14 -185 -41 -263 -60 -79
-20 -146 -33 -149 -31 -10 10 18 85 42 111 13 14 19 26 13 26 -22 0 -78 -52
-97 -88 -11 -20 -33 -50 -50 -66 -17 -17 -42 -59 -57 -99 -31 -82 -72 -125
-173 -187 -106 -64 -164 -82 -256 -83 -95 -1 -160 17 -268 72 -59 31 -83 38
-100 32 -70 -26 -74 -24 -91 27 -16 48 -56 210 -56 226 0 5 8 2 17 -5 15 -12
16 -12 9 6 -17 44 -36 131 -36 162 0 31 2 33 20 23 24 -13 24 -13 5 40 -18 50
-19 88 -5 125 l10 27 44 -40 c43 -40 86 -68 86 -57 0 4 -13 25 -29 48 -16 23
-37 66 -47 94 -21 60 -16 71 37 82 l33 7 -47 29 c-40 26 -51 40 -76 100 -41
100 -54 145 -53 181 1 17 -5 39 -12 49 -11 15 -16 16 -35 5 -19 -9 -26 -9 -40
4 -16 14 -20 15 -30 2z m-141 -2480 c0 -42 -19 -20 -26 30 -5 37 -4 38 10 20
9 -11 16 -33 16 -50z m410 37 c-1 -10 -7 -31 -15 -48 l-13 -30 -1 32 c-1 37 7
63 20 63 5 0 9 -8 9 -17z"/>
</g>
</g>
</svg>
